HIERARCHY
ROOT Hips
{
	OFFSET 0.000000 71.427986 0.000000
	CHANNELS 6 Xposition Yposition Zposition Xrotation Yrotation Zrotation
	JOINT Pelvis
	{
		OFFSET 0.000000 0.000000 0.000000
		CHANNELS 3 Xrotation Yrotation Zrotation
		JOINT LeftUpLeg
		{
			OFFSET 6.797100 -2.508499 -1.318700
			CHANNELS 3 Xrotation Yrotation Zrotation
			JOINT LeftLeg
			{
				OFFSET 0.069008 -29.241863 0.690200
				CHANNELS 3 Xrotation Yrotation Zrotation
				JOINT LeftFoot
				{
					OFFSET -0.069008 -29.568123 -0.266800
					CHANNELS 3 Xrotation Yrotation Zrotation
					JOINT LeftToeBase
					{
						OFFSET 3.145500 -8.631000 16.059900
						CHANNELS 3 Xrotation Yrotation Zrotation
						End Site
						{
							OFFSET 0.000000 18.501587 0.000000
						}
					}
				}
			}
			JOINT Left_ShortSleeve
			{
				OFFSET 0.265923 -10.480953 1.153800
				CHANNELS 3 Xrotation Yrotation Zrotation
				End Site
				{
					OFFSET 1.725763 19.823879 0.000000
				}
			}
		}
		JOINT RightUpLeg
		{
			OFFSET -6.797100 -2.508499 -1.318700
			CHANNELS 3 Xrotation Yrotation Zrotation
			JOINT RightLeg
			{
				OFFSET -0.082453 -29.241932 0.688000
				CHANNELS 3 Xrotation Yrotation Zrotation
				JOINT RightFoot
				{
					OFFSET 0.082453 -29.568058 -0.264600
					CHANNELS 3 Xrotation Yrotation Zrotation
					JOINT RightToeBase
					{
						OFFSET -3.115300 -8.682800 16.113400
						CHANNELS 3 Xrotation Yrotation Zrotation
						End Site
						{
							OFFSET 0.000000 18.567114 0.000000
						}
					}
				}
			}
			JOINT Right_ShortSleeve
			{
				OFFSET -0.265923 -10.480953 1.153800
				CHANNELS 3 Xrotation Yrotation Zrotation
				End Site
				{
					OFFSET -1.725766 19.823910 0.000000
				}
			}
		}
	}
	JOINT Spine
	{
		OFFSET 0.000000 13.368103 0.470500
		CHANNELS 3 Xrotation Yrotation Zrotation
		JOINT Spine1
		{
			OFFSET 0.147000 13.837402 0.538800
			CHANNELS 3 Xrotation Yrotation Zrotation
			JOINT Spine2
			{
				OFFSET 0.168000 16.242897 -1.435500
				CHANNELS 3 Xrotation Yrotation Zrotation
				JOINT Neck
				{
					OFFSET 0.217200 18.631500 -1.679100
					CHANNELS 3 Xrotation Yrotation Zrotation
					JOINT Head
					{
						OFFSET 0.000000 6.599396 1.385900
						CHANNELS 3 Xrotation Yrotation Zrotation
						JOINT Hat
						{
							OFFSET -0.532200 27.220596 -10.096100
							CHANNELS 3 Xrotation Yrotation Zrotation
							End Site
							{
								OFFSET 0.000000 22.029861 0.000000
							}
						}
						JOINT HairD
						{
							OFFSET -10.777400 17.437393 -1.325900
							CHANNELS 3 Xrotation Yrotation Zrotation
							JOINT HairD1
							{
								OFFSET -3.290299 -11.051193 1.062200
								CHANNELS 3 Xrotation Yrotation Zrotation
								End Site
								{
									OFFSET 0.000000 11.579437 0.000000
								}
							}
						}
						JOINT HairB
						{
							OFFSET -10.777400 17.437393 1.467900
							CHANNELS 3 Xrotation Yrotation Zrotation
							JOINT HairB1
							{
								OFFSET -1.561200 -12.956299 3.590200
								CHANNELS 3 Xrotation Yrotation Zrotation
								End Site
								{
									OFFSET 0.000000 13.534866 0.000000
								}
							}
						}
						JOINT HairA
						{
							OFFSET 9.713100 17.437393 1.467900
							CHANNELS 3 Xrotation Yrotation Zrotation
							JOINT HairA1
							{
								OFFSET 1.561200 -12.956299 3.590200
								CHANNELS 3 Xrotation Yrotation Zrotation
								End Site
								{
									OFFSET 0.000000 13.534866 0.000000
								}
							}
						}
						JOINT HairC
						{
							OFFSET 9.713100 17.437393 -1.325900
							CHANNELS 3 Xrotation Yrotation Zrotation
							JOINT HairC1
							{
								OFFSET 3.290300 -11.051193 1.062200
								CHANNELS 3 Xrotation Yrotation Zrotation
								End Site
								{
									OFFSET 0.000000 11.579437 0.000000
								}
							}
						}
					}
				}
				JOINT LeftShoulder
				{
					OFFSET 5.101800 15.108002 -2.763700
					CHANNELS 3 Xrotation Yrotation Zrotation
					JOINT LeftArm
					{
						OFFSET 9.825497 2.506317 -1.597400
						CHANNELS 3 Xrotation Yrotation Zrotation
						JOINT LeftForeArm
						{
							OFFSET 21.966244 0.000000 0.000000
							CHANNELS 3 Xrotation Yrotation Zrotation
							JOINT LeftHand
							{
								OFFSET 33.879036 0.000000 0.000000
								CHANNELS 3 Xrotation Yrotation Zrotation
								JOINT LeftHandThumb1
								{
									OFFSET 6.715286 -2.359680 3.363841
									CHANNELS 3 Xrotation Yrotation Zrotation
									JOINT LeftHandThumb2
									{
										OFFSET 2.507072 -1.447464 1.447461
										CHANNELS 3 Xrotation Yrotation Zrotation
										JOINT LeftHandThumb3
										{
											OFFSET 2.898338 -1.673355 1.673357
											CHANNELS 3 Xrotation Yrotation Zrotation
											End Site
											{
												OFFSET -0.295959 3.727692 -0.131651
											}
										}
									}
								}
								JOINT LeftHandIndex1
								{
									OFFSET 14.190811 -0.254547 3.840278
									CHANNELS 3 Xrotation Yrotation Zrotation
									JOINT LeftHandIndex2
									{
										OFFSET 3.551727 0.000000 -0.000000
										CHANNELS 3 Xrotation Yrotation Zrotation
										JOINT LeftHandIndex3
										{
											OFFSET 2.894196 0.000000 0.000000
											CHANNELS 3 Xrotation Yrotation Zrotation
											End Site
											{
												OFFSET -1.000603 2.690872 0.366626
											}
										}
									}
								}
								JOINT LeftHandMiddle1
								{
									OFFSET 13.776489 0.000000 0.000000
									CHANNELS 3 Xrotation Yrotation Zrotation
									JOINT LeftHandMiddle2
									{
										OFFSET 3.438232 0.000000 0.000000
										CHANNELS 3 Xrotation Yrotation Zrotation
										JOINT LeftHandMiddle3
										{
											OFFSET 3.691551 0.000000 0.000000
											CHANNELS 3 Xrotation Yrotation Zrotation
											End Site
											{
												OFFSET -1.082298 3.499527 0.457670
											}
										}
									}
								}
								JOINT LeftHandRing1
								{
									OFFSET 13.966164 -0.268127 -3.067488
									CHANNELS 3 Xrotation Yrotation Zrotation
									JOINT LeftHandRing2
									{
										OFFSET 3.162567 0.000000 0.000000
										CHANNELS 3 Xrotation Yrotation Zrotation
										JOINT LeftHandRing3
										{
											OFFSET 3.324348 0.000000 0.000000
											CHANNELS 3 Xrotation Yrotation Zrotation
											End Site
											{
												OFFSET -0.861900 3.184998 0.405154
											}
										}
									}
								}
								JOINT LeftHandPinky1
								{
									OFFSET 13.131393 -0.168503 -5.746925
									CHANNELS 3 Xrotation Yrotation Zrotation
									JOINT LeftHandPinky2
									{
										OFFSET 2.849182 0.000000 0.000000
										CHANNELS 3 Xrotation Yrotation Zrotation
										JOINT LeftHandPinky3
										{
											OFFSET 2.805038 0.000000 0.000000
											CHANNELS 3 Xrotation Yrotation Zrotation
											End Site
											{
												OFFSET -0.882500 2.642609 0.325652
											}
										}
									}
								}
							}
							JOINT Left_Sleeve
							{
								OFFSET 6.592125 -0.646545 0.805568
								CHANNELS 3 Xrotation Yrotation Zrotation
								End Site
								{
									OFFSET -0.000179 20.275787 -0.000000
								}
							}
						}
					}
				}
				JOINT RightShoulder
				{
					OFFSET -5.731700 15.108002 -2.763700
					CHANNELS 3 Xrotation Yrotation Zrotation
					JOINT RightArm
					{
						OFFSET -9.825497 2.506317 -1.597400
						CHANNELS 3 Xrotation Yrotation Zrotation
						JOINT RightForeArm
						{
							OFFSET -21.966242 0.000000 0.000000
							CHANNELS 3 Xrotation Yrotation Zrotation
							JOINT RightHand
							{
								OFFSET -33.879032 0.000000 0.000000
								CHANNELS 3 Xrotation Yrotation Zrotation
								JOINT RightHandThumb1
								{
									OFFSET -6.715286 -2.359680 3.363841
									CHANNELS 3 Xrotation Yrotation Zrotation
									JOINT RightHandThumb2
									{
										OFFSET -2.507072 -1.447464 1.447461
										CHANNELS 3 Xrotation Yrotation Zrotation
										JOINT RightHandThumb3
										{
											OFFSET -2.898338 -1.673355 1.673357
											CHANNELS 3 Xrotation Yrotation Zrotation
											End Site
											{
												OFFSET 0.295959 3.727692 -0.131651
											}
										}
									}
								}
								JOINT RightHandIndex1
								{
									OFFSET -14.190811 -0.254547 3.840278
									CHANNELS 3 Xrotation Yrotation Zrotation
									JOINT RightHandIndex2
									{
										OFFSET -3.551727 0.000000 -0.000000
										CHANNELS 3 Xrotation Yrotation Zrotation
										JOINT RightHandIndex3
										{
											OFFSET -2.894196 0.000000 0.000000
											CHANNELS 3 Xrotation Yrotation Zrotation
											End Site
											{
												OFFSET 1.000603 2.690872 0.366626
											}
										}
									}
								}
								JOINT RightHandMiddle1
								{
									OFFSET -13.776489 0.000000 0.000000
									CHANNELS 3 Xrotation Yrotation Zrotation
									JOINT RightHandMiddle2
									{
										OFFSET -3.438232 0.000000 0.000000
										CHANNELS 3 Xrotation Yrotation Zrotation
										JOINT RightHandMiddle3
										{
											OFFSET -3.691551 0.000000 0.000000
											CHANNELS 3 Xrotation Yrotation Zrotation
											End Site
											{
												OFFSET 1.082298 3.499527 0.457670
											}
										}
									}
								}
								JOINT RightHandRing1
								{
									OFFSET -13.966164 -0.268127 -3.067488
									CHANNELS 3 Xrotation Yrotation Zrotation
									JOINT RightHandRing2
									{
										OFFSET -3.162567 0.000000 0.000000
										CHANNELS 3 Xrotation Yrotation Zrotation
										JOINT RightHandRing3
										{
											OFFSET -3.324348 0.000000 0.000000
											CHANNELS 3 Xrotation Yrotation Zrotation
											End Site
											{
												OFFSET 0.861900 3.184998 0.405154
											}
										}
									}
								}
								JOINT RightHandPinky1
								{
									OFFSET -13.131393 -0.168503 -5.746925
									CHANNELS 3 Xrotation Yrotation Zrotation
									JOINT RightHandPinky2
									{
										OFFSET -2.849182 0.000000 0.000000
										CHANNELS 3 Xrotation Yrotation Zrotation
										JOINT RightHandPinky3
										{
											OFFSET -2.805038 0.000000 0.000000
											CHANNELS 3 Xrotation Yrotation Zrotation
											End Site
											{
												OFFSET 0.882500 2.642609 0.325652
											}
										}
									}
								}
							}
							JOINT Right_Sleeve
							{
								OFFSET -6.592125 -0.646545 0.805568
								CHANNELS 3 Xrotation Yrotation Zrotation
								End Site
								{
									OFFSET 0.000179 20.275787 -0.000000
								}
							}
						}
					}
				}
				JOINT Bind_Right_JacketString
				{
					OFFSET -3.534800 11.969597 7.200700
					CHANNELS 3 Xrotation Yrotation Zrotation
					JOINT Bind_Right_JacketString1
					{
						OFFSET -0.319900 -6.102600 2.794100
						CHANNELS 3 Xrotation Yrotation Zrotation
						End Site
						{
							OFFSET 0.000000 6.719452 0.000000
						}
					}
				}
				JOINT Bind_Left_JacketString
				{
					OFFSET 2.904800 11.969597 7.200700
					CHANNELS 3 Xrotation Yrotation Zrotation
					JOINT Bind_Left_JacketString1
					{
						OFFSET 0.364800 -5.904503 3.186800
						CHANNELS 3 Xrotation Yrotation Zrotation
						End Site
						{
							OFFSET 0.000000 6.719513 0.000000
						}
					}
				}
				JOINT HairE
				{
					OFFSET 5.915200 17.612701 -11.592200
					CHANNELS 3 Xrotation Yrotation Zrotation
					JOINT HairE1
					{
						OFFSET 0.289200 -7.171898 -1.284500
						CHANNELS 3 Xrotation Yrotation Zrotation
						End Site
						{
							OFFSET 0.000000 7.291756 0.000000
						}
					}
				}
				JOINT HairF
				{
					OFFSET -0.864800 17.612701 -11.592200
					CHANNELS 3 Xrotation Yrotation Zrotation
					JOINT HairF1
					{
						OFFSET 0.000000 -14.087097 -2.127501
						CHANNELS 3 Xrotation Yrotation Zrotation
						End Site
						{
							OFFSET 0.000000 14.246841 0.000000
						}
					}
				}
				JOINT HairG
				{
					OFFSET -8.087700 17.612701 -11.592200
					CHANNELS 3 Xrotation Yrotation Zrotation
					JOINT HairG1
					{
						OFFSET -0.293600 -6.081398 -0.910100
						CHANNELS 3 Xrotation Yrotation Zrotation
						End Site
						{
							OFFSET 0.000000 6.156120 0.000000
						}
					}
				}
			}
		}
	}
	JOINT Pouch
	{
		OFFSET 0.000000 4.394501 10.847300
		CHANNELS 3 Xrotation Yrotation Zrotation
		End Site
		{
			OFFSET 0.000000 21.880577 0.000000
		}
	}
	JOINT Bag
	{
		OFFSET -13.229000 4.813004 -0.593300
		CHANNELS 3 Xrotation Yrotation Zrotation
		End Site
		{
			OFFSET 0.000000 21.880577 0.000000
		}
	}
	JOINT OccupyGuyFacialAnim_Joint
	{
		OFFSET 1.000000 -70.206398 -1.655000
		CHANNELS 3 Xrotation Yrotation Zrotation
		End Site
		{
			OFFSET 0.000000 21.880577 0.000000
		}
	}
}
MOTION
Frames: 4
Frame Time: 0.033333
12.017099 65.808777 30.919453 126.375862 12.610406 -201.398578 0.000002 -0.000002 -0.000001 -68.436863 -9.802122 22.005712 48.065168 -7.634925 -1.081042 -32.409152 -13.357372 5.847362 0.000000 -0.000001 0.000000 -0.000001 -0.000000 -0.000000 -83.112050 3.198585 12.123506 39.536950 8.766078 -4.507019 -9.917750 5.413908 -1.168787 0.000000 -0.000001 0.000000 0.000001 -0.000001 -0.000001 7.698608 -1.751761 0.989231 12.060490 -3.985191 -0.298871 11.996298 -4.177640 -0.275072 9.971053 -0.587532 -7.596401 26.122888 -0.382217 6.675254 -0.000000 -0.000000 -0.000000 -0.000000 -0.000000 -0.000000 -0.000000 -0.000000 0.000000 -0.000000 -0.000000 -0.000000 -0.000000 -0.000002 0.000002 -0.000000 -0.000000 -0.000000 -0.000000 -0.000002 0.000002 -0.000000 -0.000000 -0.000000 -0.000000 -0.000000 -0.000000 7.194636 -19.043846 -9.145719 0.160638 -30.336695 -24.166176 0.000003 -100.671435 0.000005 33.229673 -1.625757 41.753646 -10.352658 -18.164041 -0.612132 10.165720 44.435466 3.473402 -0.000001 -0.000000 0.000002 -1.622506 2.463878 -39.973238 4.432841 5.677129 -75.949190 0.000001 -0.000000 0.000005 2.432175 7.055330 -53.396937 4.432772 5.677133 -75.948446 -0.000000 -0.000000 0.000002 6.552048 9.294066 -62.105496 5.321082 5.827098 -84.794101 -0.000002 0.000000 0.000003 14.701000 10.908678 -74.392310 5.247083 5.819920 -84.064759 -0.000002 -0.000001 0.000001 0.000001 0.000001 0.000001 5.656913 5.136231 -7.722096 13.542990 -38.539394 55.452926 0.023138 90.160976 -0.024523 89.972545 -25.799033 24.969181 0.491029 17.436257 -0.961538 9.059951 -37.753591 -3.645069 0.000001 0.000000 0.000001 -2.693244 3.553328 35.196279 2.577064 -4.167723 63.446256 -0.000002 -0.000001 0.000000 -1.621252 -2.785411 47.364664 2.399109 -4.074186 60.969923 0.000003 0.000004 0.000002 2.320011 -6.288784 55.363539 3.058913 -4.374915 69.908789 0.000001 -0.000000 -0.000002 8.684061 -13.451387 65.546525 3.017456 -4.359570 69.364123 -0.000001 0.000004 0.000001 0.000001 -0.000000 -0.000000 -0.000000 -0.000001 0.000001 -0.000000 -0.000001 0.000000 -0.000000 -0.000001 -0.000000 -0.000000 -0.000001 -0.000000 -0.000000 -0.000001 0.000001 -0.000000 -0.000001 0.000001 -0.000000 -0.000001 -0.000000 -0.000000 -0.000001 -0.000000 -0.000000 -0.000001 0.000001 -0.000000 -0.000001 0.000001 0.000002 -0.000002 -0.000001 0.000002 -0.000002 -0.000001 0.000002 -0.000002 -0.000001 
14.146017 64.215393 29.433094 127.759276 -8.847328 -205.233797 -0.000004 0.000000 -0.000002 -66.350151 -6.448546 13.952507 49.597152 -9.594174 -1.599541 -33.996157 -20.530531 3.836148 -0.000000 0.000000 0.000000 -0.000000 0.000001 -0.000000 -80.765361 5.451935 7.750444 47.080470 5.840414 -8.239298 -19.651646 4.623419 -1.417514 -0.000000 0.000000 0.000001 0.000000 -0.000001 -0.000001 7.291824 -1.335783 1.718703 11.540048 -3.307748 0.811760 11.487524 -3.474455 0.811540 8.880354 -0.072442 -6.356216 25.198584 8.438403 4.509741 0.000001 0.000000 0.000002 0.000001 0.000000 0.000002 0.000001 0.000000 0.000002 0.000001 0.000000 0.000001 0.000001 -0.000003 -0.000001 0.000001 0.000000 0.000001 0.000001 -0.000003 -0.000001 0.000001 0.000000 0.000002 0.000001 0.000000 0.000002 7.492567 -20.090098 -7.927696 -10.262720 -34.118827 -27.619122 -0.003431 -94.282688 -0.003387 28.669019 -6.536033 44.420320 -10.366408 -18.166217 -0.611614 10.167830 44.450786 3.473911 -0.000001 0.000001 0.000000 -1.626260 2.466342 -39.964605 4.433446 5.677307 -75.955447 0.000001 0.000000 0.000002 2.431552 7.054913 -53.389485 4.433717 5.677379 -75.957967 0.000002 -0.000001 0.000004 6.550876 9.293977 -62.098646 5.322008 5.827196 -84.803287 -0.000003 -0.000000 -0.000001 14.705423 10.901907 -74.387652 5.247988 5.820003 -84.073803 -0.000003 -0.000001 0.000003 0.000000 0.000002 0.000001 5.522317 5.897137 -4.495905 -5.257772 -35.052141 42.650587 -0.043551 90.420988 0.043806 82.975173 -28.596682 20.797258 -2.821269 18.253056 -0.548246 9.346771 -40.219576 -3.750801 0.000002 0.000000 0.000000 -2.541914 2.081397 36.505046 2.849179 -4.292604 67.134032 -0.000000 -0.000001 -0.000003 -0.697529 -3.757663 49.005900 2.718371 -4.235227 65.374759 -0.000001 -0.000003 -0.000005 3.253366 -6.877311 57.208602 3.397175 -4.483845 74.286462 -0.000000 0.000000 0.000000 10.191692 -12.507629 68.017209 3.350488 -4.470498 73.688664 0.000000 0.000001 -0.000001 0.000000 0.000001 0.000001 -0.000000 0.000001 0.000000 -0.000000 0.000000 -0.000000 -0.000000 0.000001 0.000000 -0.000000 0.000001 0.000000 -0.000000 0.000001 0.000000 -0.000000 0.000000 -0.000000 -0.000000 0.000001 0.000000 -0.000000 0.000001 0.000000 -0.000000 0.000001 0.000000 -0.000000 0.000000 -0.000000 -0.000004 0.000000 -0.000002 -0.000004 0.000000 -0.000002 -0.000004 0.000000 -0.000002 
15.662550 62.828613 27.633003 127.754877 -26.177125 -209.781693 -0.000000 -0.000000 -0.000002 -63.001207 -4.268399 9.392691 52.294848 -9.522403 -1.689729 -36.425037 -21.983510 1.996897 0.000000 -0.000000 0.000000 -0.000001 0.000002 0.000000 -76.666319 7.328966 3.013907 56.479435 0.435435 -9.338025 -25.893012 1.409403 1.221058 0.000000 -0.000001 -0.000000 -0.000001 0.000002 0.000001 6.687707 -0.399114 2.202920 10.709946 -1.739382 1.619465 10.679919 -1.869362 1.610652 7.317840 0.311149 -5.277911 22.965246 16.598692 1.203924 -0.000001 -0.000001 -0.000000 -0.000001 -0.000001 -0.000000 -0.000001 -0.000001 0.000001 -0.000001 -0.000001 0.000001 -0.000001 -0.000001 -0.000001 -0.000001 -0.000001 0.000001 -0.000001 -0.000001 -0.000001 -0.000001 -0.000001 -0.000000 -0.000001 -0.000001 -0.000000 7.713211 -20.965850 -7.027839 -23.663849 -37.822873 -34.540854 -0.014157 -91.077608 -0.014223 26.080090 -8.785292 46.466197 -10.359689 -18.165149 -0.612101 10.166854 44.443477 3.473632 0.000001 0.000001 0.000000 -1.624655 2.465010 -39.967613 4.433080 5.677181 -75.951553 0.000001 0.000002 0.000000 2.431748 7.055036 -53.391910 4.433164 5.677258 -75.952475 0.000002 -0.000001 0.000001 6.551386 9.294083 -62.100763 5.321469 5.827130 -84.797898 -0.000001 0.000003 -0.000007 14.703524 10.905296 -74.388922 5.247466 5.819959 -84.068530 -0.000001 0.000001 0.000001 0.000000 0.000001 -0.000001 5.325935 7.257196 -1.451358 -16.583549 -25.774825 36.438287 -0.073603 91.104164 0.073579 74.445353 -30.250286 13.084207 -5.827155 18.991146 -0.033027 9.607031 -42.422814 -3.834621 -0.000000 -0.000001 -0.000001 -2.352246 0.772242 37.578379 3.094147 -4.387591 70.370203 0.000003 0.000000 0.000002 0.187888 -4.590197 50.403842 3.008581 -4.356228 69.247811 0.000004 0.000003 -0.000002 4.139265 -7.372276 58.787944 3.700453 -4.558083 78.132515 0.000004 -0.000000 0.000001 11.495599 -11.590683 70.135340 3.649234 -4.547042 77.487588 -0.000000 0.000001 0.000002 0.000001 -0.000000 0.000003 -0.000000 0.000001 -0.000001 -0.000000 0.000000 -0.000001 -0.000000 0.000001 -0.000001 -0.000000 0.000001 -0.000001 -0.000000 0.000001 -0.000001 -0.000000 0.000000 -0.000001 -0.000000 0.000001 -0.000001 -0.000000 0.000001 -0.000001 -0.000000 0.000001 -0.000001 -0.000000 0.000000 -0.000001 -0.000000 -0.000000 -0.000002 -0.000000 -0.000000 -0.000002 -0.000000 -0.000000 -0.000002 
16.714851 61.859550 25.696880 126.552696 -38.031771 -214.693145 -0.000002 0.000001 -0.000000 -60.494931 -3.684550 8.014150 54.934433 -9.200294 -1.467616 -37.065220 -19.176381 -0.321949 0.000000 0.000000 -0.000000 0.000000 -0.000003 -0.000003 -71.867920 6.633781 0.765490 63.916569 -6.830565 -8.261547 -31.506505 -0.193152 -0.324334 0.000001 -0.000000 0.000001 0.000002 0.000001 0.000001 5.932251 0.973527 2.352066 9.489754 0.442660 1.861049 9.479468 0.351158 1.865572 5.364697 0.707230 -4.501049 20.479001 24.175156 -2.995481 -0.000001 -0.000001 0.000000 -0.000001 -0.000001 0.000000 -0.000001 -0.000001 0.000001 -0.000001 -0.000001 0.000000 0.000000 -0.000001 0.000002 -0.000001 -0.000001 0.000000 0.000000 -0.000001 0.000002 -0.000001 -0.000001 0.000000 -0.000001 -0.000001 0.000000 8.055685 -21.220535 -5.730359 -39.546498 -36.569366 -44.498816 0.015323 -91.592072 0.015391 22.630818 -8.611625 46.434269 -10.353368 -18.164125 -0.612399 10.165870 44.436507 3.473453 -0.000001 0.000002 0.000001 -1.622994 2.463867 -39.971247 4.432768 5.677116 -75.948480 0.000000 0.000003 -0.000001 2.432017 7.055257 -53.394997 4.432728 5.677109 -75.947885 -0.000001 0.000004 -0.000002 6.551896 9.294152 -62.103604 5.321013 5.827112 -84.793438 -0.000001 0.000005 -0.000003 14.701564 10.908421 -74.390780 5.247023 5.819906 -84.064131 0.000004 -0.000002 -0.000001 0.000001 -0.000001 0.000000 5.048400 9.143298 0.520680 -21.847219 -13.327792 34.670757 -1.564874 92.015086 1.562972 66.656704 -30.496815 3.987755 -8.338727 19.596742 0.492434 9.825651 -44.241136 -3.895576 0.000001 0.000000 -0.000000 -2.162444 -0.302805 38.395082 3.296640 -4.454415 72.996650 -0.000001 -0.000004 -0.000000 0.957622 -5.251027 51.506279 3.250158 -4.439979 72.396945 0.000002 -0.000003 0.000000 4.904659 -7.758362 60.039132 3.950053 -4.603291 81.257278 0.000000 -0.000001 -0.000003 12.541225 -10.784568 71.815758 3.895252 -4.594575 80.573665 0.000001 0.000001 -0.000003 -0.000001 -0.000001 -0.000003 0.000001 -0.000001 -0.000001 0.000001 0.000003 -0.000003 0.000001 -0.000001 -0.000002 0.000001 -0.000001 -0.000002 0.000001 -0.000001 -0.000001 0.000001 0.000003 -0.000003 0.000001 -0.000001 -0.000002 0.000001 -0.000001 -0.000002 0.000001 -0.000001 -0.000001 0.000001 0.000003 -0.000003 -0.000002 0.000001 -0.000000 -0.000002 0.000001 -0.000000 -0.000002 0.000001 -0.000000 
